<?xml version="1.0" encoding="UTF-8" standalone="no"?>
<svg width="33px" height="34px" viewBox="0 0 33 34" version="1.1" xmlns="http://www.w3.org/2000/svg" xmlns:xlink="http://www.w3.org/1999/xlink">
    <!-- Generator: Sketch 40.3 (33839) - http://www.bohemiancoding.com/sketch -->
    <title>4</title>
    <desc>Created with Sketch.</desc>
    <defs></defs>
    <g id="main" stroke="none" stroke-width="1" fill="none" fill-rule="evenodd" stroke-linecap="round">
        <g id="taskes5-detail" transform="translate(-1463.000000, -48.000000)" stroke="#CCCCCC" stroke-width="3">
            <g id="top" transform="translate(0.000000, -1.000000)">
                <g id="Group" transform="translate(1098.000000, 44.000000)">
                    <g id="4" transform="translate(367.000000, 7.000000)">
                        <path d="M28.7500714,24.2857143 C28.7500714,19.5521429 22.3543571,15.7142857 14.4643571,15.7142857 C6.57435714,15.7142857 0.178642857,19.5521429 0.178642857,24.2857143" id="Stroke-13"></path>
                        <path d="M22.3215,7.86335714 C22.3215,3.52407143 18.8036429,0.00621428571 14.4643571,0.00621428571 C10.1250714,0.00621428571 6.60721429,3.52407143 6.60721429,7.86335714 C6.60721429,12.2026429 10.1250714,15.7205 14.4643571,15.7205 C18.8036429,15.7205 22.3215,12.2026429 22.3215,7.86335714 Z" id="Stroke-15"></path>
                        <path d="M28.5714286,24.2857143 L28.5714286,28.975 C28.5714286,29.3935714 28.4292857,30 28.015,30 L0.913571429,30 C0.507857143,30 0,29.3885714 0,28.975 L0,24.2857143" id="Stroke-17"></path>
                    </g>
                </g>
            </g>
        </g>
    </g>
</svg>