<?xml version="1.0" encoding="UTF-8" standalone="no"?>
<svg width="49px" height="49px" viewBox="0 0 49 49" version="1.1" xmlns="http://www.w3.org/2000/svg" xmlns:xlink="http://www.w3.org/1999/xlink">
    <!-- Generator: Sketch 40.3 (33839) - http://www.bohemiancoding.com/sketch -->
    <title>Page 1</title>
    <desc>Created with Sketch.</desc>
    <defs>
        <polygon id="path-1" points="48.9583333 14.8435292 48.9583333 0.626791667 0 0.626791667 0 14.8435292 0 29.0602667 48.9583333 29.0602667"></polygon>
    </defs>
    <g id="index" stroke="none" stroke-width="1" fill="none" fill-rule="evenodd">
        <g transform="translate(-1167.000000, -3412.000000)" id="4.">
            <g transform="translate(0.000000, 3134.000000)">
                <g id="2" transform="translate(1167.000000, 267.000000)">
                    <g id="Page-1" transform="translate(0.000000, 10.000000)">
                        <path d="M24.4791667,49.374025 C23.1960503,49.374025 21.912934,49.129025 20.6930556,48.6410667 L5.88723958,42.7141083 C3.54947917,41.779025 2.03993056,39.5454417 2.03993056,37.0280667 L2.03993056,22.1831083 C2.03993056,21.0561083 2.95177951,20.1414417 4.07986111,20.1414417 C5.20794271,20.1414417 6.11979167,21.0561083 6.11979167,22.1831083 L6.11979167,37.0280667 C6.11979167,37.8671917 6.62365451,38.6124 7.40290799,38.9227333 L22.206684,44.8496917 C23.6713542,45.4376917 25.2869792,45.43565 26.7516493,44.8496917 L41.5574653,38.9227333 C42.3346788,38.6124 42.8385417,37.8671917 42.8385417,37.0280667 L42.8385417,29.4575667 C42.8385417,28.328525 43.7503906,27.4159 44.8784722,27.4159 C46.0065538,27.4159 46.9184028,28.328525 46.9184028,29.4575667 L46.9184028,37.0280667 C46.9184028,39.5454417 45.4088542,41.779025 43.0731337,42.7141083 L28.2652778,48.6410667 C27.0453993,49.129025 25.762283,49.374025 24.4791667,49.374025" id="Fill-1" fill="#FFFFFF"></path>
                        <g id="Group-5" transform="translate(0.000000, 0.374025)">
                            <mask id="mask-2" fill="black">
                                <use xlink:href="#path-1"></use>
                            </mask>
                            <g id="Clip-4"></g>
                            <path d="M4.07986111,4.70930833 L4.07986111,17.922975 C4.07986111,18.841725 4.69796007,19.6522667 5.58125,19.8931833 L23.940625,24.905475 C24.2976128,24.9993917 24.6668403,25.0014333 25.0156684,24.905475 L43.3770833,19.8931833 C44.2603733,19.6522667 44.8784722,18.841725 44.8784722,17.922975 L44.8784722,4.70930833 L4.07986111,4.70930833 Z M24.4791667,29.0602667 C23.9365451,29.0602667 23.3959635,28.9888083 22.8676215,28.84385 L4.51028646,23.8336 C1.85429687,23.1088083 0,20.6771833 0,17.922975 L0,4.70930833 C0,2.45735 1.82981771,0.625975 4.07986111,0.625975 L44.8784722,0.625975 C47.1285156,0.625975 48.9583333,2.45735 48.9583333,4.70930833 L48.9583333,17.922975 C48.9583333,20.6771833 47.1040365,23.1088083 44.4480469,23.8336 L26.0907118,28.84385 C25.5623698,28.9888083 25.0217882,29.0602667 24.4791667,29.0602667 L24.4791667,29.0602667 Z" id="Fill-3" fill="#FFFFFF" mask="url(#mask-2)"></path>
                        </g>
                        <path d="M26.5190972,19.375 C26.5190972,20.502 25.6052083,21.4166667 24.4791667,21.4166667 C23.353125,21.4166667 22.4392361,20.502 22.4392361,19.375 C22.4392361,18.248 23.353125,17.3333333 24.4791667,17.3333333 C25.6052083,17.3333333 26.5190972,18.248 26.5190972,19.375" id="Fill-6" fill="#FFFFFF"></path>
                    </g>
                </g>
            </g>
        </g>
    </g>
</svg>
