<?xml version="1.0" encoding="UTF-8" standalone="no"?>
<svg width="50px" height="50px" viewBox="0 0 50 50" version="1.1" xmlns="http://www.w3.org/2000/svg" xmlns:xlink="http://www.w3.org/1999/xlink">
    <!-- Generator: Sketch 40.3 (33839) - http://www.bohemiancoding.com/sketch -->
    <title>Page 1</title>
    <desc>Created with Sketch.</desc>
    <defs>
        <polygon id="path-1" points="18.8266038 23.1132075 18.8266038 0.109561369 -0.000311320754 0.109561369 -0.000311320754 23.1132075 18.8266038 23.1132075"></polygon>
    </defs>
    <g id="index" stroke="none" stroke-width="1" fill="none" fill-rule="evenodd">
        <g transform="translate(-859.000000, -3547.000000)" id="4.">
            <g transform="translate(0.000000, 3134.000000)">
                <g id="3" transform="translate(849.000000, 400.000000)">
                    <g id="Page-1" transform="translate(10.000000, 13.000000)">
                        <path d="M18.6792453,50 C8.37867925,50 0,41.5895833 0,31.25 L0,12.5 C0,11.3479167 0.927735849,10.4166667 2.0754717,10.4166667 C3.22320755,10.4166667 4.1509434,11.3479167 4.1509434,12.5 L4.1509434,31.25 C4.1509434,39.2895833 10.67,45.8333333 18.6792453,45.8333333 C21.2320755,45.8333333 23.7433962,45.1604167 25.9413208,43.8833333 C26.9375472,43.3020833 28.2056604,43.6458333 28.7764151,44.64375 C29.3533962,45.6395833 29.0130189,46.9145833 28.0209434,47.4895833 C25.1920755,49.13125 21.9626415,50 18.6792453,50" id="Fill-1" fill="#FFFFFF"></path>
                        <path d="M10.3773585,29.1666667 C9.22962264,29.1666667 8.30188679,28.2354167 8.30188679,27.0833333 L8.30188679,10.4166667 C8.30188679,9.26666667 7.37207547,8.33333333 6.22641509,8.33333333 C5.08075472,8.33333333 4.1509434,9.26666667 4.1509434,10.4166667 L4.1509434,27.0833333 C4.1509434,28.2354167 3.22320755,29.1666667 2.0754717,29.1666667 C0.927735849,29.1666667 0,28.2354167 0,27.0833333 L0,10.4166667 C0,6.97083333 2.79358491,4.16666667 6.22641509,4.16666667 C9.65924528,4.16666667 12.4528302,6.97083333 12.4528302,10.4166667 L12.4528302,27.0833333 C12.4528302,28.2354167 11.5250943,29.1666667 10.3773585,29.1666667" id="Fill-3" fill="#FFFFFF"></path>
                        <g id="Group-7" transform="translate(31.132075, 20.636792)">
                            <mask id="mask-2" fill="black">
                                <use xlink:href="#path-1"></use>
                            </mask>
                            <g id="Clip-6"></g>
                            <path d="M3.79416981,23.1132075 C3.26284906,23.1132075 2.7315283,22.9090409 2.32681132,22.5027909 C1.51530189,21.6882075 1.51530189,20.3715409 2.32681132,19.5569575 L14.0677547,7.77154088 C14.4620943,7.37779088 14.6758679,6.85487421 14.6758679,6.29862421 C14.6758679,5.74237421 14.4600189,5.21945755 14.0677547,4.82570755 C13.2811509,4.03820755 11.9113396,4.03820755 11.1351132,4.82570755 L3.54303774,12.4444575 C2.7315283,13.2590409 1.41775472,13.2590409 0.608320755,12.4444575 C-0.203188679,11.6298742 -0.203188679,10.3111242 0.608320755,9.49862421 L8.19832075,1.87987421 C10.5456792,-0.478459119 14.6509623,-0.482625786 17.0024717,1.87987421 C18.1792642,3.05904088 18.8268113,4.62987421 18.8268113,6.29862421 C18.8268113,7.96737421 18.1792642,9.53820755 17.0024717,10.7194575 L5.2615283,22.5027909 C4.85681132,22.9090409 4.32549057,23.1132075 3.79416981,23.1132075" id="Fill-5" fill="#FFFFFF" mask="url(#mask-2)"></path>
                        </g>
                        <path d="M35.2830189,31.25 C34.135283,31.25 33.2075472,30.31875 33.2075472,29.1666667 L33.2075472,6.25 C33.2075472,5.1 32.2777358,4.16666667 31.1320755,4.16666667 C29.9864151,4.16666667 29.0566038,5.1 29.0566038,6.25 L29.0566038,22.9166667 C29.0566038,24.06875 28.1288679,25 26.9811321,25 C25.8333962,25 24.9056604,24.06875 24.9056604,22.9166667 L24.9056604,6.25 C24.9056604,2.80416667 27.6992453,0 31.1320755,0 C34.5649057,0 37.3584906,2.80416667 37.3584906,6.25 L37.3584906,29.1666667 C37.3584906,30.31875 36.4307547,31.25 35.2830189,31.25" id="Fill-8" fill="#FFFFFF"></path>
                        <path d="M14.5283019,20.8333333 C13.3826415,20.8333333 12.4528302,21.7666667 12.4528302,22.9166667 L12.4528302,31.25 C12.4528302,32.4 13.3826415,33.3333333 14.5283019,33.3333333 C15.6739623,33.3333333 16.6037736,32.4 16.6037736,31.25 L16.6037736,22.9166667 C16.6037736,21.7666667 15.6739623,20.8333333 14.5283019,20.8333333 M14.5283019,37.5 C11.0954717,37.5 8.30188679,34.6958333 8.30188679,31.25 L8.30188679,22.9166667 C8.30188679,19.4708333 11.0954717,16.6666667 14.5283019,16.6666667 C17.9611321,16.6666667 20.754717,19.4708333 20.754717,22.9166667 L20.754717,31.25 C20.754717,34.6958333 17.9611321,37.5 14.5283019,37.5" id="Fill-10" fill="#FFFFFF"></path>
                        <path d="M22.8301887,20.8333333 C21.6845283,20.8333333 20.754717,21.7666667 20.754717,22.9166667 L20.754717,31.25 C20.754717,32.4 21.6845283,33.3333333 22.8301887,33.3333333 C23.9758491,33.3333333 24.9056604,32.4 24.9056604,31.25 L24.9056604,22.9166667 C24.9056604,21.7666667 23.9758491,20.8333333 22.8301887,20.8333333 M22.8301887,37.5 C19.3973585,37.5 16.6037736,34.6958333 16.6037736,31.25 L16.6037736,22.9166667 C16.6037736,19.4708333 19.3973585,16.6666667 22.8301887,16.6666667 C26.2630189,16.6666667 29.0566038,19.4708333 29.0566038,22.9166667 L29.0566038,31.25 C29.0566038,34.6958333 26.2630189,37.5 22.8301887,37.5" id="Fill-12" fill="#FFFFFF"></path>
                    </g>
                </g>
            </g>
        </g>
    </g>
</svg>
