<?xml version="1.0" encoding="UTF-8" standalone="no"?>
<svg width="47px" height="47px" viewBox="0 0 47 47" version="1.1" xmlns="http://www.w3.org/2000/svg" xmlns:xlink="http://www.w3.org/1999/xlink">
    <!-- Generator: Sketch 40.3 (33839) - http://www.bohemiancoding.com/sketch -->
    <title>Page 1</title>
    <desc>Created with Sketch.</desc>
    <defs></defs>
    <g id="index" stroke="none" stroke-width="1" fill="none" fill-rule="evenodd">
        <g transform="translate(-1168.000000, -3550.000000)" id="4." fill="#000000">
            <g transform="translate(0.000000, 3134.000000)">
                <g id="4" transform="translate(1168.000000, 404.000000)">
                    <g id="Page-1" transform="translate(0.000000, 12.000000)">
                        <path d="M32.981,46.4756 C29.395,46.4756 25.811,45.1096 23.081,42.3816 L14.657,33.9576 C9.199,28.4996 9.199,19.6156 14.657,14.1596 C20.113,8.6996 28.995,8.7036 34.455,14.1596 L42.879,22.5836 C43.661,23.3636 43.661,24.6296 42.879,25.4116 C42.099,26.1916 40.833,26.1916 40.051,25.4116 L31.627,16.9876 C27.729,13.0896 21.383,13.0896 17.485,16.9876 C13.587,20.8856 13.587,27.2296 17.485,31.1296 L25.909,39.5536 C29.807,43.4516 36.153,43.4516 40.051,39.5536 C42.207,37.3976 43.253,34.4216 42.921,31.3876 C42.799,30.2876 43.593,29.3016 44.689,29.1816 C45.801,29.0616 46.775,29.8516 46.897,30.9496 C47.361,35.1956 45.899,39.3636 42.879,42.3816 C40.151,45.1096 36.565,46.4756 32.981,46.4756" id="Fill-1"></path>
                        <path d="M24.4948,25.997 C23.9828,25.997 23.4708,25.801 23.0808,25.411 L20.2528,22.583 C19.4708,21.801 19.4708,20.537 20.2528,19.755 C21.0348,18.973 22.2988,18.973 23.0808,19.755 L25.9088,22.583 C26.6908,23.365 26.6908,24.629 25.9088,25.411 C25.5188,25.801 25.0068,25.997 24.4948,25.997" id="Fill-3"></path>
                        <path d="M16.0728,17.5732 C15.4368,17.5732 14.8088,17.2712 14.4228,16.7052 C11.8408,12.9472 9.5828,11.7832 7.3988,10.6592 C4.7728,9.3052 2.0548,7.9072 0.1248,2.6992 C-0.2592,1.6632 0.2708,0.5112 1.3048,0.1272 C2.3388,-0.2628 3.4908,0.2732 3.8748,1.3072 C5.2688,5.0612 6.8448,5.8732 9.2308,7.1032 C11.6088,8.3272 14.5688,9.8532 17.7188,14.4412 C18.3448,15.3512 18.1148,16.5972 17.2028,17.2212 C16.8588,17.4592 16.4628,17.5732 16.0728,17.5732" id="Fill-5"></path>
                    </g>
                </g>
            </g>
        </g>
    </g>
</svg>
