<?xml version="1.0" encoding="UTF-8" standalone="no"?>
<svg width="373px" height="140px" viewBox="0 0 373 140" version="1.1" xmlns="http://www.w3.org/2000/svg" xmlns:xlink="http://www.w3.org/1999/xlink">
    <!-- Generator: Sketch 40.3 (33839) - http://www.bohemiancoding.com/sketch -->
    <title>1</title>
    <desc>Created with Sketch.</desc>
    <defs>
        <filter x="-50%" y="-50%" width="200%" height="200%" filterUnits="objectBoundingBox" id="filter-1">
            <feOffset dx="2" dy="2" in="SourceAlpha" result="shadowOffsetOuter1"></feOffset>
            <feGaussianBlur stdDeviation="5" in="shadowOffsetOuter1" result="shadowBlurOuter1"></feGaussianBlur>
            <feColorMatrix values="0 0 0 0 0.691128606   0 0 0 0 0.834946792   0 0 0 0 0.971274447  0 0 0 1 0" type="matrix" in="shadowBlurOuter1" result="shadowMatrixOuter1"></feColorMatrix>
            <feMerge>
                <feMergeNode in="shadowMatrixOuter1"></feMergeNode>
                <feMergeNode in="SourceGraphic"></feMergeNode>
            </feMerge>
        </filter>
    </defs>
    <g id="error" stroke="none" stroke-width="1" fill="none" fill-rule="evenodd">
        <g transform="translate(-352.000000, -342.000000)" id="1">
            <g filter="url(#filter-1)" transform="translate(360.000000, 350.000000)">
                <path d="M352.915934,24.6691667 L352.915934,24.6691667 C352.915934,21.650859 350.471839,19.2055923 347.454978,19.2055923 L293.936296,19.2055923 L293.936296,30.132741 L347.454978,30.132741 C350.471839,30.132741 352.915934,27.6874744 352.915934,24.6691667" id="Fill-17" fill="#44A4FF"></path>
                <path d="M352.915934,94.9716769 L352.915934,94.9716769 C352.915934,91.9533692 350.471839,89.5059154 347.454978,89.5059154 L293.936296,89.5059154 L293.936296,100.435251 L347.454978,100.435251 C350.471839,100.435251 352.915934,97.9877974 352.915934,94.9716769" id="Fill-18" fill="#44A4FF"></path>
                <path d="M298.719551,113.179946 L298.719551,6.45871026 C298.719551,3.03796154 295.947536,0.264617949 292.526241,0.264617949 L246.866701,0.264617949 C238.493818,0.264617949 231.069715,4.31746154 226.441675,10.5706077 C220.36423,18.7834667 210.710274,23.5755769 200.494482,23.5755769 C195.365818,23.5755769 191.207796,27.7377795 191.207796,32.8689026 L191.207796,86.7697538 C191.207796,91.9030641 195.365818,96.0630795 200.494482,96.0630795 C210.710274,96.0630795 220.36423,100.85519 226.441675,109.070236 C231.069715,115.321195 238.493818,119.376226 246.866701,119.376226 L292.526241,119.376226 C295.947536,119.376226 298.719551,116.602882 298.719551,113.179946" id="Fill-19" fill="#44A4FF"></path>
                <polygon id="Fill-25" fill="#44A4FF" points="0.131167883 68.0146897 204.250255 68.0146897 204.250255 51.6239667 0.131167883 51.6239667"></polygon>
                <path d="M255.160883,69.4735385 C249.831095,69.4735385 245.511299,65.1516718 245.511299,59.8193282 C245.511299,54.4891718 249.831095,50.1673051 255.160883,50.1673051 C260.488485,50.1673051 264.808281,54.4891718 264.808281,59.8193282 C264.808281,65.1516718 260.488485,69.4735385 255.160883,69.4735385" id="Fill-20" fill="#FFFFFF"></path>
            </g>
        </g>
    </g>
</svg>