<?xml version="1.0" encoding="UTF-8" standalone="no"?>
<svg width="319px" height="140px" viewBox="0 0 319 140" version="1.1" xmlns="http://www.w3.org/2000/svg" xmlns:xlink="http://www.w3.org/1999/xlink">
    <!-- Generator: Sketch 40.3 (33839) - http://www.bohemiancoding.com/sketch -->
    <title>0</title>
    <desc>Created with Sketch.</desc>
    <defs>
        <filter x="-50%" y="-50%" width="200%" height="200%" filterUnits="objectBoundingBox" id="filter-1">
            <feOffset dx="2" dy="2" in="SourceAlpha" result="shadowOffsetOuter1"></feOffset>
            <feGaussianBlur stdDeviation="5" in="shadowOffsetOuter1" result="shadowBlurOuter1"></feGaussianBlur>
            <feColorMatrix values="0 0 0 0 0.968962585   0 0 0 0 0.667767539   0 0 0 0 0.792466125  0 0 0 1 0" type="matrix" in="shadowBlurOuter1" result="shadowMatrixOuter1"></feColorMatrix>
            <feMerge>
                <feMergeNode in="shadowMatrixOuter1"></feMergeNode>
                <feMergeNode in="SourceGraphic"></feMergeNode>
            </feMerge>
        </filter>
    </defs>
    <g id="error" stroke="none" stroke-width="1" fill="none" fill-rule="evenodd">
        <g transform="translate(-1250.000000, -342.000000)" id="0">
            <g filter="url(#filter-1)" transform="translate(1258.000000, 350.000000)">
                <path d="M0.381948905,113.179946 L0.381948905,6.45871026 C0.381948905,3.03796154 3.1539635,0.264617949 6.57307299,0.264617949 L52.2347993,0.264617949 C60.6076825,0.264617949 68.0317847,4.31746154 72.6576387,10.5706077 C78.7372701,18.7834667 88.3890401,23.5755769 98.6048321,23.5755769 C103.735682,23.5755769 107.893704,27.7377795 107.893704,32.8689026 L107.893704,86.7697538 C107.893704,91.9030641 103.735682,96.0630795 98.6048321,96.0630795 C88.3890401,96.0630795 78.7372701,100.85519 72.6576387,109.070236 C68.0317847,115.321195 60.6076825,119.376226 52.2347993,119.376226 L6.57307299,119.376226 C3.1539635,119.376226 0.381948905,116.602882 0.381948905,113.179946" id="Fill-21" fill="#FB5E9F"></path>
                <polygon id="Fill-23" fill="#FB5E9F" points="94.8512445 68.0146897 299.1015 68.0146897 299.1015 51.6239667 94.8512445 51.6239667"></polygon>
                <path d="M53.5880146,59.8193282 C53.5880146,54.4891718 49.268219,50.1673051 43.9406168,50.1673051 C38.6108285,50.1673051 34.2910328,54.4891718 34.2910328,59.8193282 C34.2910328,65.1516718 38.6108285,69.4735385 43.9406168,69.4735385 C49.268219,69.4735385 53.5880146,65.1516718 53.5880146,59.8193282 Z" id="Fill-22" fill="#FFFFFF"></path>
            </g>
        </g>
    </g>
</svg>