<?xml version="1.0" encoding="UTF-8" standalone="no"?>
<svg width="52px" height="52px" viewBox="0 0 52 52" version="1.1" xmlns="http://www.w3.org/2000/svg" xmlns:xlink="http://www.w3.org/1999/xlink">
    <!-- Generator: Sketch 40.3 (33839) - http://www.bohemiancoding.com/sketch -->
    <title>Group 7</title>
    <desc>Created with Sketch.</desc>
    <defs></defs>
    <g id="index" stroke="none" stroke-width="1" fill="none" fill-rule="evenodd">
        <g transform="translate(-849.000000, -3407.000000)" id="4." fill="#FFFFFF">
            <g transform="translate(0.000000, 3134.000000)">
                <g id="1" transform="translate(849.000000, 263.000000)">
                    <g id="Group-7" transform="translate(0.000000, 10.000000)">
                        <path d="M26.0010833,38.9961 C24.8029167,38.9961 23.8344167,38.0276 23.8344167,36.8294333 L23.8344167,15.1627667 C23.8344167,13.9646 24.8029167,12.9961 26.0010833,12.9961 C27.19925,12.9961 28.16775,13.9646 28.16775,15.1627667 L28.16775,36.8294333 C28.16775,38.0276 27.19925,38.9961 26.0010833,38.9961" id="Fill-1"></path>
                        <path d="M36.8344167,28.1627667 L15.16775,28.1627667 C13.9695833,28.1627667 13.0010833,27.1942667 13.0010833,25.9961 C13.0010833,24.7979333 13.9695833,23.8294333 15.16775,23.8294333 L36.8344167,23.8294333 C38.0325833,23.8294333 39.0010833,24.7979333 39.0010833,25.9961 C39.0010833,27.1942667 38.0325833,28.1627667 36.8344167,28.1627667" id="Fill-3"></path>
                        <path d="M7.6154,44.3802667 C1.6159,38.3807667 -1.02743333,30.0802667 0.363566667,21.6086 C2.19006667,10.4546 11.3225667,1.6601 22.5740667,0.2171 C31.5397333,-0.9269 40.3039,2.50726667 46.0304,9.41893333 C46.7909,10.3376 46.6652333,11.7047667 45.7422333,12.4696 C44.8192333,13.2322667 43.4542333,13.1022667 42.6915667,12.1814333 C37.9227333,6.42243333 30.6189,3.54726667 23.1244,4.51576667 C13.7600667,5.7161 6.15723333,13.0329333 4.6384,22.3106 C3.47706667,29.3869333 5.68056667,36.3159333 10.6790667,41.3166 C15.6819,46.3172667 22.6109,48.5186 29.6872333,47.3594333 C38.9822333,45.8341 46.4854,37.8954333 47.5275667,28.4812667 C47.7702333,26.3167667 47.6944,24.1544333 47.3109,22.0549333 C47.1592333,21.2359333 46.9599,20.4191 46.7172333,19.6304333 C46.3662333,18.4842667 47.0097333,17.2752667 48.1537333,16.9242667 C49.2999,16.5646 50.5089,17.2146 50.8599,18.3607667 C51.1502333,19.3076 51.3907333,20.2869333 51.5705667,21.2706 C52.0342333,23.7882667 52.1230667,26.3774333 51.8370667,28.9579333 C50.5630667,40.4477667 41.7425667,49.7752667 30.3892333,51.6364333 C28.9072333,51.8769333 27.4317333,51.9982667 25.9714,51.9982667 C19.0835667,51.9982667 12.5662333,49.3332667 7.6154,44.3802667 Z" id="Fill-5"></path>
                    </g>
                </g>
            </g>
        </g>
    </g>
</svg>