<?xml version="1.0" encoding="UTF-8" standalone="no"?>
<svg width="173px" height="202px" viewBox="0 0 173 202" version="1.1" xmlns="http://www.w3.org/2000/svg" xmlns:xlink="http://www.w3.org/1999/xlink">
    <!-- Generator: Sketch 40.3 (33839) - http://www.bohemiancoding.com/sketch -->
    <title>icon</title>
    <desc>Created with Sketch.</desc>
    <defs></defs>
    <g id="index" stroke="none" stroke-width="1" fill="none" fill-rule="evenodd">
        <g transform="translate(-501.000000, -3405.000000)" id="4.">
            <g transform="translate(0.000000, 3134.000000)">
                <g id="icon" transform="translate(501.000000, 271.000000)">
                    <path d="M150.621031,24.36536 L145.019701,28.79624 C144.23758,29.41232 143.215402,29.7224 142.190642,29.7224 C141.168464,29.7224 140.146286,29.41232 139.366746,28.79624 C137.805085,27.56408 137.805085,25.56284 139.364165,24.32864 L144.968076,19.8998 C146.527156,18.6656 149.05937,18.6656 150.621031,19.8998 C152.180111,21.13196 152.182692,23.13116 150.621031,24.36536 L150.621031,24.36536 Z M150.621031,52.72748 C149.83891,53.34356 148.816732,53.65364 147.794554,53.65364 C146.769794,53.65364 145.747616,53.34356 144.968076,52.72748 L139.364165,48.2966 C137.805085,47.06444 137.805085,45.0632 139.366746,43.829 C140.928407,42.59684 143.45804,42.59684 145.019701,43.83104 L150.621031,48.25988 C152.182692,49.49408 152.180111,51.49532 150.621031,52.72748 L150.621031,52.72748 Z M154.856876,17.50076 C149.28394,14.56112 142.5959,12.83936 135.39419,12.83936 C126.945732,12.83936 119.196796,15.19964 113.141164,19.13072 C113.724529,19.2776 114.274337,19.5326 114.736382,19.8998 L120.340293,24.32864 C121.899373,25.56284 121.899373,27.56408 120.337712,28.79624 C119.558172,29.41232 118.535994,29.7224 117.511234,29.7224 C116.489056,29.7224 115.466878,29.41232 114.684757,28.79624 L109.083427,24.36536 C108.626544,24.00428 108.306468,23.57792 108.118036,23.123 C105.513547,25.66076 103.46919,28.56776 102.121774,31.72976 L129.720585,31.72976 C131.930142,31.72976 133.718954,33.14348 133.718954,34.88768 L133.718954,63.47012 C150.954014,61.92992 164.389462,50.33864 164.389462,36.31364 C164.389462,29.0288 160.757632,22.40492 154.856876,17.50076 L154.856876,17.50076 Z" id="Fill-596" fill="#FCEA4D"></path>
                    <path d="M63.0079705,69.6532809 L63.0079705,114.796532 C63.3409528,113.378235 64.9723079,112.301814 66.9392265,112.301814 C69.1487834,112.301814 70.9375952,113.655643 70.9375952,115.327904 L70.9375952,122.661631 L70.935014,122.739774 C70.935014,122.80815 70.8111136,130.602921 77.1635896,135.588449 C80.7050757,138.366435 85.7385289,139.817942 92.1193988,139.899992 C94.3289557,139.929296 96.0867924,141.306568 96.0480735,142.976876 C96.0119359,144.629602 94.2282866,145.950219 92.0548673,145.950219 L91.9825921,145.950219 C83.368934,145.838866 76.4279311,143.750492 71.3531778,139.743706 C62.9098827,133.074195 62.9253702,123.486041 62.943439,122.632328 L62.943439,115.327904 L62.9356953,115.449026 L62.9356953,122.755403 L62.933114,122.847221 L62.933114,122.97225 L62.9356953,123.107047 L62.9356953,123.138304 L62.9408578,123.308265 L62.9408578,123.333662 L62.9486015,123.544648 L62.9486015,123.552462 C62.9589266,123.794706 62.9795766,124.079928 63.0079705,124.410083 L63.0079705,129.811722 C63.0595956,129.981683 63.093152,130.159459 63.1060583,130.339188 C63.482922,135.774038 66.0615988,140.738077 70.1580553,144.758538 C76.0226736,148.290604 83.4463717,150.39656 91.4998968,150.39656 C109.68486,150.39656 124.68455,139.673377 125.693822,125.97099 L125.693822,69.6337452 L125.686078,69.6532809 L63.0079705,69.6532809" id="Fill-597" fill-opacity="0.2" fill="#FFFFFF"></path>
                    <path d="M34.2811496,4.36928 L2.415519,20.93 C0.572500751,21.8888 0.0588303993,23.84924 1.27202168,25.3058 C2.04123658,26.22788 3.31637806,26.72972 4.61475086,26.72972 C5.37105947,26.72972 6.13253059,26.5604 6.8088202,26.20952 L38.6744508,9.6488 C40.5174691,8.69 41.0311394,6.72956 39.8179482,5.273 C38.6047569,3.81644 36.1267491,3.41048 34.2811496,4.36928" id="Fill-598" fill="#FFFFFF" opacity="0.519123134"></path>
                    <path d="M50.6850445,8.01068 L50.6850445,3.81236 C50.6850445,2.06816 48.8962327,0.65444 46.6892571,0.65444 C44.4797002,0.65444 42.6908884,2.06816 42.6908884,3.81236 L42.6908884,8.01068 C42.6908884,9.75488 44.4797002,11.17064 46.6892571,11.17064 C48.8962327,11.17064 50.6850445,9.75488 50.6850445,8.01068" id="Fill-599" fill="#FFFFFF" opacity="0.5"></path>
                    <path d="M133.718954,63.47012 L133.718954,34.88768 C133.718954,33.14348 131.930142,31.72976 129.720585,31.72976 L95.7538101,31.72976 C98.513175,18.737 112.738488,8.98376 129.805766,8.98376 C139.655847,8.98376 148.550862,12.26 154.856876,17.50076 C160.757632,22.40492 164.389462,29.0288 164.389462,36.31364 C164.389462,50.33864 150.954014,61.92992 133.718954,63.47012 L133.718954,63.47012 Z M125.693822,55.12244 L81.0328954,55.12244 L80.9296451,54.81848 L74.1254489,38.06192 L125.693822,38.06192 L125.693822,55.12244 L125.693822,55.12244 Z M125.693822,66.06092 L125.693822,124.89044 C124.68455,139.199 109.68486,150.39656 91.4998968,150.39656 C83.4463717,150.39656 76.0226736,148.19744 70.1580553,144.50912 C62.7756573,139.86812 57.8686857,132.8648 57.3059714,124.89044 L57.3059714,61.44032 L125.693822,61.44032 L125.693822,66.06092 L125.693822,66.06092 Z M109.922336,195.35408 L73.0774581,195.35408 L91.4998968,187.7408 L109.922336,195.35408 L109.922336,195.35408 Z M57.3059714,38.06192 L65.7311977,38.06192 L72.6592943,55.12244 L57.3059714,55.12244 L57.3059714,38.06192 L57.3059714,38.06192 Z M129.805766,2.66588 C108.321956,2.66588 90.50095,15.21596 87.6744724,31.74404 L71.5596784,31.74404 L61.1236521,6.04412 C60.4499438,4.38152 58.1990867,3.4676 56.0953614,4.00004 C53.9942174,4.53452 52.8378138,6.3134 53.5115221,7.97396 L63.1654272,31.74404 L53.310184,31.74404 C51.1006271,31.74404 49.3118153,33.15776 49.3118153,34.90196 L49.3118153,125.1434 C50.419175,141.78572 66.8669513,155.03348 87.5041094,156.56348 L87.5041094,182.26136 L54.9570266,195.71312 C53.3256715,196.38836 52.4893439,197.85512 52.9281578,199.2668 C53.3669717,200.67848 54.9699329,201.67196 56.8103699,201.67196 L126.192005,201.67196 C128.032442,201.67196 129.635403,200.67848 130.074217,199.2668 C130.513031,197.85512 129.674122,196.38836 128.042767,195.71312 L95.4982656,182.26136 L95.4982656,156.56348 C116.132842,155.03348 132.578037,141.78368 133.687978,125.1434 L133.687978,69.81452 C155.352477,68.26004 172.383618,53.83316 172.383618,36.31364 C172.383618,17.75984 153.28489,2.66588 129.805766,2.66588 Z" id="Fill-600" fill="#FFFFFF" opacity="0.5"></path>
                    <path d="M109.083427,19.8998 C107.978648,20.77088 107.658572,22.02548 108.118036,23.123 C108.306468,23.57792 108.626544,24.00428 109.083427,24.36536 L114.684757,28.79624 C115.466878,29.41232 116.489056,29.7224 117.511234,29.7224 C118.535994,29.7224 119.558172,29.41232 120.337712,28.79624 C121.899373,27.56408 121.899373,25.56284 120.340293,24.32864 L114.736382,19.8998 C114.274337,19.5326 113.724529,19.2776 113.141164,19.13072 C111.760191,18.77576 110.183043,19.03076 109.083427,19.8998" id="Fill-601" fill="#FFFFFF"></path>
                    <path d="M145.019701,43.83104 C143.45804,42.59684 140.928407,42.59684 139.366746,43.829 C137.805085,45.0632 137.805085,47.06444 139.364165,48.2966 L144.968076,52.72748 C145.747616,53.34356 146.769794,53.65364 147.794554,53.65364 C148.816732,53.65364 149.83891,53.34356 150.621031,52.72748 C152.180111,51.49532 152.182692,49.49408 150.621031,48.25988 L145.019701,43.83104" id="Fill-602" fill="#FFFFFF"></path>
                    <path d="M144.968076,19.8998 L139.364165,24.32864 C137.805085,25.56284 137.805085,27.56408 139.366746,28.79624 C140.146286,29.41232 141.168464,29.7224 142.190642,29.7224 C143.215402,29.7224 144.23758,29.41232 145.019701,28.79624 L150.621031,24.36536 C152.182692,23.13116 152.180111,21.13196 150.621031,19.8998 C149.05937,18.6656 146.527156,18.6656 144.968076,19.8998" id="Fill-603" fill="#FFFFFF"></path>
                    <path d="M71.3531778,139.27244 C76.4279311,143.45648 83.368934,145.63724 91.9825921,145.75352 L92.0548673,145.75352 C94.2282866,145.75352 96.0119359,144.37448 96.0480735,142.64864 C96.0867924,140.90444 94.3289557,139.46624 92.1193988,139.43564 C85.7385289,139.34996 80.7050757,137.83424 77.1635896,134.93336 C70.8111136,129.72728 70.935014,121.58768 70.935014,121.51628 L70.9375952,121.43468 L70.9375952,113.77652 C70.9375952,112.03028 69.1487834,110.61656 66.9392265,110.61656 C64.9723079,110.61656 63.3409528,111.7406 63.0079705,113.22164 C62.9692516,113.40116 62.943439,113.5868 62.943439,113.77652 L62.943439,121.40408 C62.9253702,122.29556 62.9098827,132.30788 71.3531778,139.27244" id="Fill-604" fill="#FFFFFF"></path>
                </g>
            </g>
        </g>
    </g>
</svg>